<svg width="40" height="40" viewBox="0 0 40 40" fill="none" xmlns="http://www.w3.org/2000/svg">
<path d="M20 13.332C28.2843 13.332 35 11.0935 35 8.33203C35 5.57061 28.2843 3.33203 20 3.33203C11.7157 3.33203 5 5.57061 5 8.33203C5 11.0935 11.7157 13.332 20 13.332Z" stroke="#E5E7EB" stroke-width="3" stroke-linecap="round" stroke-linejoin="round"/>
<path d="M5 8.33203V31.6654C5 32.9914 6.58035 34.2632 9.3934 35.2009C12.2064 36.1386 16.0218 36.6654 20 36.6654C23.9782 36.6654 27.7936 36.1386 30.6066 35.2009C33.4196 34.2632 35 32.9914 35 31.6654V8.33203" stroke="#E5E7EB" stroke-width="3" stroke-linecap="round" stroke-linejoin="round"/>
<path d="M5 20C5 21.3261 6.58035 22.5979 9.3934 23.5355C12.2064 24.4732 16.0218 25 20 25C23.9782 25 27.7936 24.4732 30.6066 23.5355C33.4196 22.5979 35 21.3261 35 20" stroke="#E5E7EB" stroke-width="3" stroke-linecap="round" stroke-linejoin="round"/>
</svg>
