<svg width="160" height="160" viewBox="0 0 160 160" fill="none" xmlns="http://www.w3.org/2000/svg">
<g filter="url(#filter0_i_288_4364)">
<g clip-path="url(#clip0_288_4364)">
<path d="M124.408 27.0169C124.283 24.2546 124.283 21.6178 124.283 18.981C124.283 16.8465 122.65 15.2142 120.516 15.2142C104.821 15.2142 92.8926 10.694 82.9733 1.02586C81.4666 -0.355301 79.2065 -0.355301 77.6998 1.02586C67.7805 10.694 55.8522 15.2142 40.1572 15.2142C38.0226 15.2142 36.3903 16.8465 36.3903 18.981C36.3903 21.6178 36.3903 24.2546 36.2648 27.0169C35.7625 53.3846 35.0092 89.546 79.0809 104.739L80.3365 104.99L81.5921 104.739C125.538 89.546 124.911 53.5102 124.408 27.0169ZM77.3231 63.555C76.5697 64.1828 75.6908 64.5595 74.6863 64.5595H74.5607C73.5563 64.5595 72.5518 64.0573 71.924 63.3039L60.2468 50.3712L65.8971 45.3487L75.063 55.5191L95.4038 36.1828L100.552 41.7075L77.3231 63.555Z" fill="#10131C"/>
</g>
</g>
<defs>
<filter id="filter0_i_288_4364" x="0" y="0" width="160" height="160" filterUnits="userSpaceOnUse" color-interpolation-filters="sRGB">
<feFlood flood-opacity="0" result="BackgroundImageFix"/>
<feBlend mode="normal" in="SourceGraphic" in2="BackgroundImageFix" result="shape"/>
<feColorMatrix in="SourceAlpha" type="matrix" values="0 0 0 0 0 0 0 0 0 0 0 0 0 0 0 0 0 0 127 0" result="hardAlpha"/>
<feOffset dy="2"/>
<feComposite in2="hardAlpha" operator="arithmetic" k2="-1" k3="1"/>
<feColorMatrix type="matrix" values="0 0 0 0 0.811765 0 0 0 0 0.905882 0 0 0 0 1 0 0 0 0.16 0"/>
<feBlend mode="normal" in2="shape" result="effect1_innerShadow_288_4364"/>
</filter>
<clipPath id="clip0_288_4364">
<rect width="160" height="160" rx="76.9231" transform="matrix(-1 0 0 1 160 0)" fill="white"/>
</clipPath>
</defs>
</svg>
