<svg width="160" height="160" viewBox="0 0 160 160" fill="none" xmlns="http://www.w3.org/2000/svg">
<g filter="url(#filter0_i_288_4354)">
<g clip-path="url(#clip0_288_4354)">
<path fill-rule="evenodd" clip-rule="evenodd" d="M59.8162 86.3274L56.4771 92.1088C55.6312 93.5762 53.7475 94.0804 52.2833 93.2346C50.8226 92.3922 50.3153 90.499 51.1588 89.0387L54.4968 83.2564C55.344 81.789 57.2264 81.2848 58.6938 82.1317C60.158 82.9797 60.6644 84.8602 59.8162 86.3276V86.3274ZM66.7395 86.7775C66.258 86.4999 65.7308 86.3675 65.2094 86.3675C64.1476 86.3675 63.1132 86.9184 62.546 87.9022L57.1323 97.2775C56.2854 98.7427 56.7931 100.627 58.2568 101.473C59.7221 102.32 61.6045 101.816 62.4506 100.349L67.8642 90.9736C68.7101 89.5062 68.2058 87.6259 66.7397 86.7777L66.7395 86.7775ZM45.2951 48.528C45.4191 48.4233 45.4021 48.2437 45.2594 48.1657L39.5203 44.9729C39.105 44.7441 38.656 44.78 38.2828 45.0718C29.7956 51.7661 25.0598 63.5935 27.0216 73.192C27.0995 73.5807 27.3148 73.8434 27.6798 73.9977L32.1827 75.9096C32.3336 75.9727 32.4885 75.8739 32.4885 75.7089C32.5991 64.8868 37.027 55.4889 45.2951 48.5275V48.528ZM76.2135 93.2909C75.9999 92.4938 75.4933 91.8323 74.7873 91.4224C74.3059 91.1459 73.7767 91.0135 73.2572 91.0135C72.1955 91.0135 71.161 91.5644 70.5914 92.5479L66.0791 100.365C65.2977 101.82 65.8099 103.649 67.2502 104.48C67.9562 104.887 68.7827 104.995 69.5787 104.781C70.3747 104.567 71.0362 104.061 71.4461 103.355L75.912 95.6193C76.3198 94.9123 76.4272 94.0869 76.2135 93.2909ZM108.97 80.7174L94.5704 72.4016C91.7585 70.7755 89.135 69.2479 85.7764 69.2479C82.7746 69.2653 80.059 70.5926 77.4314 71.8778C73.2864 73.9025 68.5887 76.1973 63.5175 71.9992C62.0774 70.804 61.2543 69.018 61.366 67.3307C61.47 65.7831 62.3268 64.4307 63.7811 63.5241L75.6156 56.1478C72.1613 54.4302 68.9814 54.7049 65.3916 55.0175C60.6513 55.4264 55.2776 55.895 48.3371 51.9908L46.9833 51.2283C39.7272 57.4827 35.9163 65.497 35.6523 75.0637L47.1017 80.9681C47.2643 81.0506 47.4096 81.1612 47.5333 81.2944L50.2838 84.253L51.7703 81.6805C53.4849 78.7111 57.2956 77.6896 60.2682 79.4042C61.8666 80.327 62.8998 81.8571 63.2468 83.5368C64.8744 82.9977 66.7157 83.1277 68.3139 84.0502C69.9132 84.9728 70.9474 86.5031 71.2946 88.1825C72.9227 87.6437 74.7643 87.7737 76.3619 88.6962C77.7977 89.5249 78.8236 90.8672 79.2552 92.4745C79.287 92.5926 79.315 92.7108 79.3397 92.8294C80.9677 92.2899 82.8105 92.4197 84.4098 93.342C85.5923 94.0254 86.4987 95.0586 87.0223 96.3025L93.963 100.308C95.3111 101.089 97.0619 100.621 97.8401 99.2708C98.6023 97.9467 98.1688 96.2291 96.8647 95.4316L88.367 90.5237C87.6144 90.0888 87.3553 89.1268 87.7888 88.3731C88.2258 87.6184 89.189 87.3623 89.9426 87.796C93.2274 89.6927 96.5123 91.5895 99.7973 93.4862C101.289 94.3483 103.204 93.8353 104.065 92.3432C104.914 90.8732 104.414 88.9618 102.955 88.0949L94.6135 83.2802C93.862 82.8443 93.6027 81.8812 94.0376 81.1275C94.4735 80.3736 95.4366 80.1167 96.1881 80.5517C99.4319 82.4243 102.676 84.2969 105.919 86.1692C107.404 87.0262 109.328 86.5117 110.186 85.0263C111.137 83.3801 110.396 81.7585 108.97 80.7176V80.7174ZM121.719 45.0718C121.506 44.9079 121.273 44.8223 121.033 44.8223C120.847 44.8223 120.661 44.8743 120.481 44.9729L114.739 48.1657C114.66 48.2102 114.635 48.2472 114.627 48.3393C114.618 48.4294 114.635 48.4693 114.706 48.528C122.974 55.4891 127.402 64.8872 127.513 75.7094C127.513 75.8744 127.667 75.9732 127.818 75.91L132.32 73.9981C132.684 73.8441 132.899 73.5796 132.979 73.1925C134.941 63.5939 130.205 51.7663 121.719 45.0718ZM112.982 51.1993L110.165 52.7673C105.517 55.3527 100.335 55.82 95.181 54.1216C90.6175 52.6186 85.8327 53.4894 80.5447 56.7851L65.4476 66.1974C64.8512 66.5705 64.5453 67.0086 64.5096 67.5421C64.4619 68.2263 64.8631 69.0223 65.5256 69.5721C68.8703 72.3419 71.5673 71.2367 76.0474 69.0473C78.855 67.6744 82.0392 66.1202 85.7555 66.0975C89.8148 66.0975 92.7496 67.7101 96.148 69.6752L110.617 78.0312C111.349 78.4417 112.314 79.4463 112.766 80.1659L124.341 74.8111C124.017 65.341 120.198 57.403 112.982 51.1993ZM89.8135 101.551L87.3606 100.135C87.2238 100.726 86.9986 101.3 86.6871 101.84L85.0203 104.727L86.3358 105.467C88.6403 106.797 90.1435 106.075 90.7865 104.961C91.3713 103.947 91.3082 102.46 89.8137 101.551H89.8135ZM82.835 96.0694C81.3719 95.2328 79.4926 95.7182 78.6391 97.1942L75.3 102.979C74.4548 104.443 74.9614 106.328 76.4244 107.174C77.8918 108.019 79.7721 107.515 80.6193 106.05L83.9573 100.265C84.8051 98.8048 84.2922 96.9157 82.835 96.0694ZM57.4645 24.9328C57.4645 12.4866 67.5544 2.39673 80.0005 2.39673C92.4466 2.39673 102.537 12.4866 102.537 24.9328C102.537 37.3789 92.4468 47.4688 80.0005 47.4688C67.5542 47.4688 57.4645 37.3791 57.4645 24.9328ZM66.7921 25.038L72.0584 34.1594C72.5854 35.0723 73.4263 35.6341 74.4715 35.7718C75.5165 35.9093 76.4745 35.5843 77.2196 34.839L92.7186 19.3399C93.9218 18.137 93.9218 16.1682 92.7186 14.9653C91.5157 13.7624 89.5471 13.7624 88.344 14.9653L75.5227 27.7865L72.1501 21.9449C71.3006 20.4735 69.3958 19.9632 67.9246 20.8127C66.4512 21.6633 65.9416 23.5648 66.7924 25.0382L66.7921 25.038ZM112.514 18.967C112.949 14.5913 116.41 11.1299 120.786 10.6955C116.41 10.2611 112.949 6.79974 112.514 2.42401C112.08 6.79974 108.619 10.2611 104.243 10.6955C108.619 11.1299 112.08 14.5913 112.514 18.967ZM46.2271 38.0197C46.5824 34.4396 49.4145 31.6075 52.9947 31.2522C49.4145 30.8968 46.5824 28.0648 46.2271 24.4846C45.8717 28.0648 43.0397 30.8968 39.4595 31.2522C43.0397 31.6075 45.8717 34.4396 46.2271 38.0197Z" fill="#10131C"/>
</g>
</g>
<defs>
<filter id="filter0_i_288_4354" x="0" y="0" width="160" height="160" filterUnits="userSpaceOnUse" color-interpolation-filters="sRGB">
<feFlood flood-opacity="0" result="BackgroundImageFix"/>
<feBlend mode="normal" in="SourceGraphic" in2="BackgroundImageFix" result="shape"/>
<feColorMatrix in="SourceAlpha" type="matrix" values="0 0 0 0 0 0 0 0 0 0 0 0 0 0 0 0 0 0 127 0" result="hardAlpha"/>
<feOffset dy="2"/>
<feComposite in2="hardAlpha" operator="arithmetic" k2="-1" k3="1"/>
<feColorMatrix type="matrix" values="0 0 0 0 0.811765 0 0 0 0 0.905882 0 0 0 0 1 0 0 0 0.16 0"/>
<feBlend mode="normal" in2="shape" result="effect1_innerShadow_288_4354"/>
</filter>
<clipPath id="clip0_288_4354">
<rect width="160" height="160" rx="76.9231" transform="matrix(-1 0 0 1 160 0)" fill="white"/>
</clipPath>
</defs>
</svg>
