<svg width="18" height="18" viewBox="0 0 18 18" fill="none" xmlns="http://www.w3.org/2000/svg">
<path d="M2.64561 5.625H15.355C15.51 5.625 15.6576 5.56116 15.764 5.44866C15.8703 5.33616 15.9254 5.18484 15.9167 5.03016L15.9096 4.88419C15.8182 3.40706 14.5835 2.25 13.0983 2.25H12.3755V1.6875C12.3755 1.377 12.1235 1.125 11.813 1.125C11.5025 1.125 11.2505 1.377 11.2505 1.6875V2.25H6.75046V1.6875C6.75046 1.377 6.49846 1.125 6.18796 1.125C5.87746 1.125 5.62546 1.377 5.62546 1.6875V2.25H4.90264C3.41736 2.25 2.18239 3.40734 2.09099 4.88531L2.08396 5.03044C2.07496 5.18484 2.13036 5.33616 2.23639 5.44894C2.34242 5.56172 2.49092 5.625 2.64561 5.625Z" fill="white"/>
<path d="M16.0045 7.29844C15.9972 6.99328 15.7475 6.75 15.4423 6.75H2.55824C2.25308 6.75 2.00362 6.99328 1.99574 7.29844C1.9454 9.31359 1.98112 11.3217 2.10205 13.2677C2.1898 14.6796 3.32071 15.8102 4.73202 15.8979C6.1484 15.9868 7.57433 16.0312 9.00027 16.0312C10.4259 16.0312 11.8524 15.9868 13.268 15.8977C14.6798 15.8099 15.8105 14.679 15.8985 13.2674C16.0194 11.3217 16.0551 9.31331 16.0045 7.29844ZM11.8128 10.125C11.3467 10.125 10.969 9.74728 10.969 9.28125C10.969 8.81522 11.3467 8.4375 11.8128 8.4375C12.2788 8.4375 12.6565 8.81522 12.6565 9.28125C12.6565 9.74728 12.2788 10.125 11.8128 10.125ZM12.6565 12.0938C12.6565 12.5598 12.2788 12.9375 11.8128 12.9375C11.3467 12.9375 10.969 12.5598 10.969 12.0938C10.969 11.6277 11.3467 11.25 11.8128 11.25C12.2788 11.25 12.6565 11.6277 12.6565 12.0938ZM6.18777 11.25C6.6538 11.25 7.03152 11.6277 7.03152 12.0938C7.03152 12.5598 6.6538 12.9375 6.18777 12.9375C5.72174 12.9375 5.34402 12.5598 5.34402 12.0938C5.34402 11.6277 5.72174 11.25 6.18777 11.25ZM5.34402 9.28125C5.34402 8.81522 5.72174 8.4375 6.18777 8.4375C6.6538 8.4375 7.03152 8.81522 7.03152 9.28125C7.03152 9.74728 6.6538 10.125 6.18777 10.125C5.72174 10.125 5.34402 9.74728 5.34402 9.28125ZM8.15652 12.0938C8.15652 11.6277 8.53424 11.25 9.00027 11.25C9.4663 11.25 9.84402 11.6277 9.84402 12.0938C9.84402 12.5598 9.4663 12.9375 9.00027 12.9375C8.53424 12.9375 8.15652 12.5598 8.15652 12.0938ZM9.00027 10.125C8.53424 10.125 8.15652 9.74728 8.15652 9.28125C8.15652 8.81522 8.53424 8.4375 9.00027 8.4375C9.4663 8.4375 9.84402 8.81522 9.84402 9.28125C9.84402 9.74728 9.4663 10.125 9.00027 10.125Z" fill="white"/>
</svg>
