<svg width="20" height="20" viewBox="0 0 20 20" fill="none" xmlns="http://www.w3.org/2000/svg">
<path d="M3.7487 13.7498C2.4987 14.7998 2.08203 17.9164 2.08203 17.9164C2.08203 17.9164 5.1987 17.4998 6.2487 16.2498C6.84036 15.5498 6.83203 14.4748 6.1737 13.8248C5.84979 13.5156 5.42311 13.337 4.97555 13.3231C4.528 13.3093 4.09109 13.4612 3.7487 13.7498Z" stroke="#E5E7EB" stroke-width="1.5" stroke-linecap="round" stroke-linejoin="round"/>
<path d="M10 12.5L7.5 10C7.94345 8.84957 8.50184 7.74676 9.16667 6.70838C10.1377 5.15587 11.4897 3.87758 13.0942 2.99512C14.6986 2.11266 16.5022 1.65535 18.3333 1.66671C18.3333 3.93338 17.6833 7.91671 13.3333 10.8334C12.2807 11.499 11.164 12.0573 10 12.5Z" stroke="#E5E7EB" stroke-width="1.5" stroke-linecap="round" stroke-linejoin="round"/>
<path d="M7.4987 9.99993H3.33203C3.33203 9.99993 3.79036 7.47493 4.9987 6.6666C6.3487 5.7666 9.16536 6.6666 9.16536 6.6666" stroke="#E5E7EB" stroke-width="1.5" stroke-linecap="round" stroke-linejoin="round"/>
<path d="M10 12.5002V16.6668C10 16.6668 12.525 16.2085 13.3333 15.0002C14.2333 13.6502 13.3333 10.8335 13.3333 10.8335" stroke="#E5E7EB" stroke-width="1.5" stroke-linecap="round" stroke-linejoin="round"/>
</svg>
