<svg width="20" height="20" viewBox="0 0 20 20" fill="none" xmlns="http://www.w3.org/2000/svg">
<path d="M9.16797 14.1668L10.8346 15.8335C10.9988 15.9976 11.1937 16.1279 11.4081 16.2167C11.6226 16.3055 11.8525 16.3513 12.0846 16.3513C12.3168 16.3513 12.5467 16.3055 12.7611 16.2167C12.9756 16.1279 13.1705 15.9976 13.3346 15.8335C13.4988 15.6693 13.629 15.4745 13.7178 15.26C13.8067 15.0455 13.8524 14.8156 13.8524 14.5835C13.8524 14.3513 13.8067 14.1215 13.7178 13.907C13.629 13.6925 13.4988 13.4976 13.3346 13.3335" stroke="#E5E7EB" stroke-width="1.5" stroke-linecap="round" stroke-linejoin="round"/>
<path d="M11.6649 11.6666L13.7482 13.7499C14.0798 14.0815 14.5294 14.2677 14.9982 14.2677C15.4671 14.2677 15.9167 14.0815 16.2482 13.7499C16.5798 13.4184 16.766 12.9688 16.766 12.4999C16.766 12.0311 16.5798 11.5815 16.2482 11.2499L13.0149 8.0166C12.5462 7.54843 11.9107 7.28546 11.2482 7.28546C10.5857 7.28546 9.95032 7.54843 9.48157 8.0166L8.74824 8.74993C8.41671 9.08145 7.96708 9.2677 7.49824 9.2677C7.02939 9.2677 6.57976 9.08145 6.24824 8.74993C5.91672 8.41841 5.73047 7.96877 5.73047 7.49993C5.73047 7.03109 5.91672 6.58145 6.24824 6.24993L8.5899 3.90826C9.3501 3.15005 10.3415 2.66706 11.4071 2.53574C12.4727 2.40443 13.5517 2.63229 14.4732 3.18326L14.8649 3.4166C15.2197 3.63075 15.6416 3.70503 16.0482 3.62493L17.4982 3.33326" stroke="#E5E7EB" stroke-width="1.5" stroke-linecap="round" stroke-linejoin="round"/>
<path d="M17.5013 2.5L18.3346 11.6667H16.668" stroke="#E5E7EB" stroke-width="1.5" stroke-linecap="round" stroke-linejoin="round"/>
<path d="M2.5013 2.5L1.66797 11.6667L7.08464 17.0833C7.41616 17.4149 7.86579 17.6011 8.33464 17.6011C8.80348 17.6011 9.25311 17.4149 9.58464 17.0833C9.91616 16.7518 10.1024 16.3022 10.1024 15.8333C10.1024 15.3645 9.91616 14.9149 9.58464 14.5833" stroke="#E5E7EB" stroke-width="1.5" stroke-linecap="round" stroke-linejoin="round"/>
<path d="M2.5 3.3335H9.16667" stroke="#E5E7EB" stroke-width="1.5" stroke-linecap="round" stroke-linejoin="round"/>
</svg>
