<svg width="40" height="40" viewBox="0 0 40 40" fill="none" xmlns="http://www.w3.org/2000/svg">
<path d="M20 33.332V36.6654" stroke="#E5E7EB" stroke-width="3" stroke-linecap="round" stroke-linejoin="round"/>
<path d="M20 3.33203V6.66536" stroke="#E5E7EB" stroke-width="3" stroke-linecap="round" stroke-linejoin="round"/>
<path d="M28.332 33.332V36.6654" stroke="#E5E7EB" stroke-width="3" stroke-linecap="round" stroke-linejoin="round"/>
<path d="M28.332 3.33203V6.66536" stroke="#E5E7EB" stroke-width="3" stroke-linecap="round" stroke-linejoin="round"/>
<path d="M3.33203 20H6.66536" stroke="#E5E7EB" stroke-width="3" stroke-linecap="round" stroke-linejoin="round"/>
<path d="M3.33203 28.332H6.66536" stroke="#E5E7EB" stroke-width="3" stroke-linecap="round" stroke-linejoin="round"/>
<path d="M3.33203 11.668H6.66536" stroke="#E5E7EB" stroke-width="3" stroke-linecap="round" stroke-linejoin="round"/>
<path d="M33.332 20H36.6654" stroke="#E5E7EB" stroke-width="3" stroke-linecap="round" stroke-linejoin="round"/>
<path d="M33.332 28.332H36.6654" stroke="#E5E7EB" stroke-width="3" stroke-linecap="round" stroke-linejoin="round"/>
<path d="M33.332 11.668H36.6654" stroke="#E5E7EB" stroke-width="3" stroke-linecap="round" stroke-linejoin="round"/>
<path d="M11.668 33.332V36.6654" stroke="#E5E7EB" stroke-width="3" stroke-linecap="round" stroke-linejoin="round"/>
<path d="M11.668 3.33203V6.66536" stroke="#E5E7EB" stroke-width="3" stroke-linecap="round" stroke-linejoin="round"/>
<path d="M30.0013 6.66797H10.0013C8.16035 6.66797 6.66797 8.16035 6.66797 10.0013V30.0013C6.66797 31.8423 8.16035 33.3346 10.0013 33.3346H30.0013C31.8423 33.3346 33.3346 31.8423 33.3346 30.0013V10.0013C33.3346 8.16035 31.8423 6.66797 30.0013 6.66797Z" stroke="#E5E7EB" stroke-width="3" stroke-linecap="round" stroke-linejoin="round"/>
<path d="M24.9987 13.332H14.9987C14.0782 13.332 13.332 14.0782 13.332 14.9987V24.9987C13.332 25.9192 14.0782 26.6654 14.9987 26.6654H24.9987C25.9192 26.6654 26.6654 25.9192 26.6654 24.9987V14.9987C26.6654 14.0782 25.9192 13.332 24.9987 13.332Z" stroke="#E5E7EB" stroke-width="3" stroke-linecap="round" stroke-linejoin="round"/>
</svg>
