<svg width="422" height="140" viewBox="0 0 422 140" fill="none" xmlns="http://www.w3.org/2000/svg">
<path d="M220.292 88.9713C219.922 85.6591 217.241 82.9479 213.934 82.5422C212.397 82.3538 210.94 82.643 209.691 83.28C207.371 84.463 204.864 85.2341 202.261 85.2341C201.373 85.2341 200.654 84.5147 200.654 83.627V57.1843H174.21C173.323 57.1843 172.603 57.9037 172.603 58.7914C172.603 61.3947 173.374 63.9017 174.557 66.2211C175.194 67.4707 175.484 68.927 175.295 70.4639C174.89 73.7718 172.178 76.4523 168.866 76.8221C164.44 77.3163 160.692 73.8656 160.692 69.5395C160.692 68.2751 161.012 67.0869 161.577 66.0503C162.788 63.8219 163.44 61.3334 163.44 58.7966V58.7914C163.44 57.9037 162.721 57.1843 161.834 57.1843H135.391V118.642C135.391 120.744 137.095 122.448 139.196 122.448H200.654V96.0041C200.654 95.1165 201.373 94.3971 202.261 94.3971H202.266C204.803 94.3971 207.292 95.049 209.52 96.2608C210.557 96.8252 211.746 97.1459 213.009 97.1459C217.335 97.1467 220.787 93.3981 220.292 88.9713Z" fill="url(#paint0_radial_2161_20849)"/>
<path d="M262.691 57.5322C261.803 57.5322 261.084 56.8128 261.084 55.9252V55.9199C261.084 53.3832 261.736 50.8955 262.948 48.6672C263.512 47.6297 263.833 46.4415 263.833 45.1771C263.833 40.8501 260.084 37.3994 255.657 37.8937C252.345 38.2643 249.634 40.9448 249.229 44.2517C249.041 45.7887 249.33 47.245 249.967 48.4946C251.15 50.814 251.921 53.321 251.921 55.9243C251.921 56.812 251.201 57.5314 250.314 57.5314H223.871V83.9749C223.871 84.8626 224.59 85.582 225.478 85.582C228.081 85.582 230.588 84.8109 232.908 83.6279C234.157 82.9909 235.614 82.7017 237.151 82.8901C240.459 83.295 243.139 86.007 243.509 89.3192C244.004 93.746 240.552 97.4947 236.226 97.4947C234.962 97.4947 233.774 97.1739 232.737 96.6096C230.509 95.3978 228.02 94.7458 225.483 94.7458H225.478C224.59 94.7458 223.871 95.4653 223.871 96.352V122.796H285.329C287.431 122.796 289.134 121.091 289.134 118.99V57.5322H262.691Z" fill="url(#paint1_radial_2161_20849)"/>
<path d="M270.404 18.3776C272.509 19.1504 279.622 22.4872 283.929 23.2951C283.929 23.2951 276.39 28.0514 273.844 29.8109C271.298 31.5704 269.963 41.0883 266.744 46.2196C263.527 51.3501 262.157 54.7868 263.827 56.3377C265.497 57.8887 266.459 57.7126 266.459 57.7126C266.459 57.7126 264.473 61.1755 266.132 64.1136C267.22 66.0423 270.573 66.6749 273.636 66.9492C276.699 67.2234 288.026 70.2123 290.598 71.5986C293.171 72.9848 293.74 73.3783 298.645 74.5892C298.645 74.5892 309.469 85.0859 317.28 87.2283C322.785 88.739 330.309 88.1904 338.499 91.1636C338.527 90.3329 338.573 89.4873 338.659 88.611C340.047 74.414 348.727 59.1987 358.887 52.2553C349.716 44.6336 338.005 33.9162 330.453 23.3424C330.453 23.3424 327.24 21.1711 325.189 19.9426C323.137 18.7141 324.681 16.5164 318.13 13.9551C315.943 13.0999 314.175 13.1034 313.022 12.667C310.722 11.7969 310.185 10.8497 308.867 9.55196C308.867 9.55196 306.152 8.59684 305.451 7.48312C304.751 6.3694 303.012 4.92272 300.955 5.29162C298.898 5.66052 298.619 7.71357 298.619 7.71357C298.619 7.71357 295.017 6.25462 293.35 5.88221C291.682 5.5098 288.206 2.48848 286.76 1.12328C285.313 -0.241925 281.55 -0.623099 280.813 1.47202C280.076 3.56802 282.128 8.07898 285.511 10.5115C285.511 10.5115 283.169 10.6622 279.33 9.88931C275.491 9.11733 274.687 9.57299 271.921 8.85709C269.154 8.14032 269.569 7.96594 268.305 7.36045C267.04 6.75495 262.639 5.20662 261.571 8.97451C260.503 12.7415 264.118 14.8805 264.852 15.1705C265.585 15.4623 268.3 17.6056 270.404 18.3776ZM289.225 38.0048C289.225 38.0048 292.503 38.5472 293.116 37.9925C293.116 37.9925 293.54 43.6338 295.37 46.0111C297.199 48.3893 292.361 53.0141 289.822 53.5662C287.284 54.1182 284.795 54.5274 279.004 53.0045C279.004 53.0045 276.599 52.5655 275.997 52.6645C275.997 52.6645 277.109 50.3573 277.824 49.5389C278.54 48.7205 281.772 44.8895 282.407 41.2592C282.407 41.2592 288.322 39.9352 289.225 38.0048Z" fill="url(#paint2_radial_2161_20849)"/>
<path d="M317.561 84.5228C312.848 82.8588 302.656 75.3256 298.648 74.5913C298.648 74.5913 309.473 85.0871 317.283 87.2304C321.455 88.3748 326.786 88.3353 332.688 89.5428L330.278 85.7653C330.278 85.7653 322.272 86.1868 317.561 84.5228Z" fill="#4B95FA"/>
<path d="M288.278 39.0092C288.719 38.6981 289.059 38.3625 289.226 38.005C289.226 38.005 289.421 38.0374 289.72 38.0769C286.676 37.1612 284.989 33.5273 284.989 33.5273C284.79 36.2814 288.271 39.0039 288.278 39.0092Z" fill="#637DAC"/>
<path d="M293.114 37.9924C293.114 37.9924 293.174 38.774 293.341 39.8754C294.166 36.8629 293.085 32.7795 293.085 32.7795C293.304 34.6205 292.213 38.2228 292.211 38.2298C292.62 38.2044 292.957 38.1352 293.114 37.9924Z" fill="#637DAC"/>
<path d="M282.129 42.3815C282.243 42.0074 282.341 41.6323 282.407 41.2591C282.407 41.2591 282.921 41.1425 283.659 40.934C283.64 40.934 278.705 40.863 275.207 37.96C275.207 37.96 277.264 40.8937 282.129 42.3815Z" fill="#637DAC"/>
<g opacity="0.52">
<path d="M276.875 52.6919C277.43 52.8093 277.85 52.8628 278.163 52.8645C277.766 52.8014 277.292 52.734 276.875 52.6919Z" fill="#E28C61"/>
</g>
<path d="M277.211 50.4175C277.211 50.4175 267.753 53.5746 266.461 57.7132C268.685 54.7944 271.987 52.9323 275.644 52.6248L276.033 52.5923C276.167 52.3207 276.688 51.271 277.211 50.4175Z" fill="#637DAC"/>
<path d="M281.258 22.606C281.258 22.606 296.037 16.934 297.738 16.4197L283.93 23.2956L281.258 22.606Z" fill="#637DAC"/>
<path d="M282.594 7.49829C283.378 8.62515 284.366 9.68981 285.513 10.5135C285.513 10.5135 284.462 10.5739 282.643 10.3926V10.3969L288.322 11.1172C284.895 10.2918 283.073 8.13971 282.594 7.49829Z" fill="#637DAC"/>
<path d="M299.416 8.25305C298.564 7.83859 298.993 6.75993 299.1 6.52246C298.709 7.1262 298.618 7.71592 298.618 7.71592C298.618 7.71592 297.853 7.40659 296.867 7.03681C297.64 7.32247 299.416 8.25305 299.416 8.25305Z" fill="#637DAC"/>
<path d="M266.461 57.7136C266.461 57.7136 271.295 51.5308 279.38 53.1019C279.38 53.1019 275.945 52.174 274.678 52.2003C274.002 52.2143 271.947 53.1738 270.33 54.1526C268.921 55.0052 267.882 55.8945 267.882 55.8945L266.461 57.7136Z" fill="#637DAC"/>
<path d="M335.409 57.594C335.409 57.594 322.503 72.0215 326.978 86.2168L332.616 86.166L335.409 57.594Z" fill="#4B95FA"/>
<path d="M349.187 44.0998C353.56 42.1142 357.381 42.3298 360.237 44.2934L360.242 44.2864L366.539 48.7983C365.321 49.0533 364.053 49.4625 362.737 50.0601C351 55.3886 340.221 72.649 338.661 88.6126C338.258 92.724 338.514 96.3411 339.306 99.3642L332.913 94.784L332.915 94.7814C329.152 92.0177 327.153 86.1179 327.933 78.1352C329.309 64.0424 338.825 48.8035 349.187 44.0998Z" fill="white"/>
<path d="M416.299 80.3964L416.299 80.3946L416.274 80.3762C416.249 80.3569 416.222 80.3403 416.197 80.321L375.255 50.2725L375.251 50.2804C372.014 48.0565 367.687 47.812 362.734 50.0605C350.998 55.389 340.219 72.6494 338.658 88.613C337.774 97.655 340.04 104.338 344.301 107.469L344.299 107.473L384.839 137.226C384.873 137.251 384.907 137.273 384.94 137.298L385.299 137.555L385.304 137.547C388.53 139.717 392.826 139.937 397.734 137.708C409.471 132.379 420.25 115.119 421.81 99.1552C422.685 90.2069 420.476 83.5666 416.299 80.3964Z" fill="url(#paint3_linear_2161_20849)"/>
<path d="M157.148 15.1721C157.882 14.882 161.497 12.7431 160.429 8.97606C159.361 5.20905 154.96 6.75651 153.695 7.362C152.431 7.96749 152.846 8.14275 150.079 8.85864C147.312 9.57454 146.509 9.11889 142.67 9.89087C138.831 10.6628 136.489 10.513 136.489 10.513C139.873 8.08053 141.924 3.56957 141.187 1.47357C140.45 -0.622425 136.687 -0.240374 135.24 1.12483C133.794 2.49003 130.318 5.51135 128.65 5.88376C126.983 6.25617 123.381 7.71513 123.381 7.71513C123.381 7.71513 123.102 5.66207 121.045 5.29317C118.988 4.92427 117.249 6.37095 116.549 7.48467C115.849 8.59839 113.133 9.55351 113.133 9.55351C111.815 10.8521 111.278 11.7985 108.978 12.6686C107.825 13.105 106.057 13.1015 103.87 13.9567C97.3196 16.5171 98.8627 18.7147 96.8114 19.9441C94.76 21.1726 91.5468 23.344 91.5468 23.344C83.9953 33.9169 72.285 44.6352 63.1133 52.2568C73.2726 59.2003 81.9527 74.4155 83.3398 88.6126C83.4257 89.488 83.473 90.3344 83.5002 91.1651C91.6905 88.1911 99.214 88.7405 104.719 87.2299C112.529 85.0865 123.354 74.5908 123.354 74.5908C128.259 73.3789 128.827 72.9864 131.401 71.6001C133.973 70.213 145.3 67.225 148.363 66.9507C151.426 66.6765 154.778 66.0429 155.866 64.1152C157.525 61.1771 155.54 57.7142 155.54 57.7142C155.54 57.7142 156.501 57.8903 158.171 56.3393C159.841 54.7883 158.472 51.3517 155.254 46.2212C152.036 41.0907 150.701 31.572 148.155 29.8125C145.609 28.053 138.07 23.2967 138.07 23.2967C142.378 22.4879 149.49 19.1511 151.595 18.3791C153.7 17.6054 156.415 15.4621 157.148 15.1721ZM139.593 41.259C140.227 44.8893 143.459 48.7203 144.175 49.5387C144.891 50.3571 146.002 52.6643 146.002 52.6643C145.4 52.5653 142.996 53.0043 142.996 53.0043C137.205 54.5272 134.716 54.118 132.178 53.566C129.639 53.0139 124.801 48.3891 126.63 46.0109C128.46 43.6336 128.884 37.9923 128.884 37.9923C129.496 38.5479 132.775 38.0046 132.775 38.0046C133.678 39.935 139.593 41.259 139.593 41.259Z" fill="url(#paint4_radial_2161_20849)"/>
<path d="M104.44 84.5228C109.153 82.8588 119.344 75.3256 123.353 74.5913C123.353 74.5913 112.529 85.0871 104.718 87.2304C100.546 88.3748 95.2149 88.3353 89.3125 89.5428L91.7231 85.7653C91.7231 85.7653 99.7285 86.1868 104.44 84.5228Z" fill="#4B95FA"/>
<path d="M133.723 39.0094C133.282 38.6984 132.942 38.3628 132.775 38.0052C132.775 38.0052 132.58 38.0377 132.281 38.0771C135.325 37.1614 137.013 33.5276 137.013 33.5276C137.211 36.2817 133.73 39.0042 133.723 39.0094Z" fill="#637DAC"/>
<path d="M128.881 37.9924C128.881 37.9924 128.821 38.774 128.654 39.8754C127.829 36.8629 128.91 32.7795 128.91 32.7795C128.692 34.6205 129.783 38.2228 129.784 38.2298C129.375 38.2044 129.039 38.1352 128.881 37.9924Z" fill="#637DAC"/>
<path d="M139.871 42.3818C139.756 42.0076 139.658 41.6326 139.592 41.2593C139.592 41.2593 139.079 41.1428 138.34 40.9342C138.359 40.9342 143.294 40.8632 146.792 37.9602C146.792 37.9602 144.736 40.8939 139.871 42.3818Z" fill="#637DAC"/>
<g opacity="0.52">
<path d="M145.124 52.6917C144.569 52.8091 144.149 52.8625 143.836 52.8643C144.233 52.8012 144.707 52.7337 145.124 52.6917Z" fill="#E28C61"/>
</g>
<path d="M144.789 50.4175C144.789 50.4175 154.247 53.5746 155.539 57.7132C153.315 54.7944 150.012 52.9323 146.355 52.6248L145.966 52.5923C145.833 52.3207 145.311 51.271 144.789 50.4175Z" fill="#637DAC"/>
<path d="M140.742 22.6065C140.742 22.6065 125.963 16.9345 124.262 16.4202L138.071 23.2961L140.742 22.6065Z" fill="#637DAC"/>
<path d="M139.408 7.4978C138.624 8.62466 137.635 9.68932 136.488 10.513C136.488 10.513 137.54 10.5735 139.359 10.3921V10.3965L133.68 11.1167C137.107 10.2913 138.928 8.13922 139.408 7.4978Z" fill="#637DAC"/>
<path d="M122.582 8.2533C123.435 7.83883 123.005 6.76017 122.898 6.52271C123.289 7.12644 123.38 7.71616 123.38 7.71616C123.38 7.71616 124.145 7.40684 125.131 7.03706C124.358 7.32272 122.582 8.2533 122.582 8.2533Z" fill="#637DAC"/>
<path d="M155.537 57.7139C155.537 57.7139 150.702 51.531 142.617 53.1022C142.617 53.1022 146.053 52.1742 147.319 52.2005C147.996 52.2145 150.051 53.174 151.668 54.1528C153.077 55.0054 154.115 55.8948 154.115 55.8948L155.537 57.7139Z" fill="#637DAC"/>
<path d="M86.5938 57.5938C86.5938 57.5938 99.5001 72.0213 95.0242 86.2166L89.3864 86.1657L86.5938 57.5938Z" fill="#4B95FA"/>
<path d="M72.8134 44.1C68.4409 42.1144 64.6195 42.33 61.7629 44.2937L61.7586 44.2867L55.4609 48.7985C56.6798 49.0535 57.9477 49.4627 59.263 50.0603C70.9995 55.3888 81.7783 72.6492 83.3389 88.6128C83.7411 92.7242 83.4853 96.3414 82.694 99.3645L89.0872 94.7843L89.0854 94.7816C92.848 92.0179 94.8477 86.1181 94.0678 78.1355C92.6912 64.0427 83.1751 48.8038 72.8134 44.1Z" fill="white"/>
<path d="M5.70041 80.3961L5.69953 80.3944L5.72494 80.376C5.75035 80.3567 5.77664 80.34 5.80205 80.3207L46.745 50.2723L46.7494 50.2802C49.9854 48.0562 54.3132 47.8118 59.2658 50.0602C71.0023 55.3887 81.7811 72.6491 83.3417 88.6127C84.2258 97.6548 81.9599 104.338 77.6986 107.469L77.7004 107.472L37.1605 137.226C37.1272 137.251 37.0931 137.273 37.0598 137.297L36.7005 137.555L36.6961 137.547C33.4698 139.717 29.1744 139.937 24.2656 137.707C12.529 132.379 1.75026 115.119 0.189648 99.1549C-0.685729 90.2066 1.52331 83.5664 5.70041 80.3961Z" fill="url(#paint5_linear_2161_20849)"/>
<defs>
<radialGradient id="paint0_radial_2161_20849" cx="0" cy="0" r="1" gradientUnits="userSpaceOnUse" gradientTransform="translate(206.908 29.6443) scale(89.2773 89.2773)">
<stop stop-color="#86E1FE"/>
<stop offset="0.1808" stop-color="#7DDAFE"/>
<stop offset="0.6522" stop-color="#6CCBFE"/>
<stop offset="1" stop-color="#66C6FE"/>
</radialGradient>
<radialGradient id="paint1_radial_2161_20849" cx="0" cy="0" r="1" gradientUnits="userSpaceOnUse" gradientTransform="translate(232.843 52.8649) scale(76.89 76.89)">
<stop stop-color="#417EE6"/>
<stop offset="1" stop-color="#2F3FA1"/>
</radialGradient>
<radialGradient id="paint2_radial_2161_20849" cx="0" cy="0" r="1" gradientUnits="userSpaceOnUse" gradientTransform="translate(264.785 20.1725) scale(108.177)">
<stop stop-color="#9CF5FE"/>
<stop offset="0.2511" stop-color="#99F2FE"/>
<stop offset="0.4394" stop-color="#8FE9FD"/>
<stop offset="0.6073" stop-color="#7FD9FD"/>
<stop offset="0.7631" stop-color="#69C3FC"/>
<stop offset="0.9095" stop-color="#4BA6FA"/>
<stop offset="0.9411" stop-color="#449FFA"/>
</radialGradient>
<linearGradient id="paint3_linear_2161_20849" x1="327.903" y1="53.5366" x2="379.989" y2="93.6943" gradientUnits="userSpaceOnUse">
<stop stop-color="#3874DA"/>
<stop offset="1" stop-color="#1A3D6C"/>
</linearGradient>
<radialGradient id="paint4_radial_2161_20849" cx="0" cy="0" r="1" gradientUnits="userSpaceOnUse" gradientTransform="translate(148.964 35.3607) scale(79.619 79.619)">
<stop stop-color="#9CF5FE"/>
<stop offset="0.2511" stop-color="#99F2FE"/>
<stop offset="0.4394" stop-color="#8FE9FD"/>
<stop offset="0.6073" stop-color="#7FD9FD"/>
<stop offset="0.7631" stop-color="#69C3FC"/>
<stop offset="0.9095" stop-color="#4BA6FA"/>
<stop offset="0.9411" stop-color="#449FFA"/>
</radialGradient>
<linearGradient id="paint5_linear_2161_20849" x1="94.096" y1="53.5362" x2="42.0099" y2="93.6941" gradientUnits="userSpaceOnUse">
<stop stop-color="#3874DA"/>
<stop offset="1" stop-color="#1A3D6C"/>
</linearGradient>
</defs>
</svg>
