<svg width="20" height="20" viewBox="0 0 20 20" fill="none" xmlns="http://www.w3.org/2000/svg">
<path d="M6.25 3.75001H6.04167V1.66667C6.04167 1.32501 5.75833 1.04167 5.41667 1.04167C5.075 1.04167 4.79167 1.32501 4.79167 1.66667V3.75001H4.58333C3.25833 3.75001 2.5 4.50834 2.5 5.83334V10.8333C2.5 12.1583 3.25833 12.9167 4.58333 12.9167H4.79167V18.3333C4.79167 18.675 5.075 18.9583 5.41667 18.9583C5.75833 18.9583 6.04167 18.675 6.04167 18.3333V12.9167H6.25C7.575 12.9167 8.33333 12.1583 8.33333 10.8333V5.83334C8.33333 4.50834 7.575 3.75001 6.25 3.75001Z" fill="#E11F35"/>
<path d="M15.4166 7.08334H15.2083V1.66667C15.2083 1.32501 14.925 1.04167 14.5833 1.04167C14.2416 1.04167 13.9583 1.32501 13.9583 1.66667V7.08334H13.75C12.425 7.08334 11.6666 7.84167 11.6666 9.16667V14.1667C11.6666 15.4917 12.425 16.25 13.75 16.25H13.9583V18.3333C13.9583 18.675 14.2416 18.9583 14.5833 18.9583C14.925 18.9583 15.2083 18.675 15.2083 18.3333V16.25H15.4166C16.7416 16.25 17.5 15.4917 17.5 14.1667V9.16667C17.5 7.84167 16.7416 7.08334 15.4166 7.08334Z" fill="#E11F35"/>
</svg>
