<svg width="24" height="24" viewBox="0 0 24 24" fill="none" xmlns="http://www.w3.org/2000/svg">
<g clip-path="url(#clip0_253_4731)">
<rect width="24" height="24" rx="12" fill="white" fill-opacity="0.03"/>
<mask id="mask0_253_4731" style="mask-type:alpha" maskUnits="userSpaceOnUse" x="4" y="4" width="16" height="16">
<g clip-path="url(#clip1_253_4731)">
<path d="M12 5.34668C8.32668 5.34668 5.34668 8.32668 5.34668 12C5.34668 15.6733 8.32668 18.6533 12 18.6533C15.6733 18.6533 18.6533 15.6733 18.6533 12C18.6533 8.32668 15.6733 5.34668 12 5.34668ZM12 17.32C9.06668 17.32 6.68001 14.9333 6.68001 12C6.68001 9.06668 9.06668 6.68001 12 6.68001C14.9333 6.68001 17.32 9.06668 17.32 12C17.32 14.9333 14.9333 17.32 12 17.32ZM12.5 7.33335L9.50001 13H11.5933V16.6667L14.5 11H12.5V7.33335Z" fill="black"/>
</g>
</mask>
<g mask="url(#mask0_253_4731)">
<rect x="4" y="4" width="16" height="16" fill="#C6C6C6"/>
</g>
<mask id="path-4-inside-1_253_4731" fill="white">
<path d="M0 12C0 5.37258 5.37258 0 12 0C18.6274 0 24 5.37258 24 12C24 18.6274 18.6274 24 12 24C5.37258 24 0 18.6274 0 12Z"/>
</mask>
<path d="M12 24V23.0045C5.92239 23.0045 0.99551 18.0776 0.99551 12H0H-0.99551C-0.99551 19.1772 4.82278 24.9955 12 24.9955V24ZM24 12H23.0045C23.0045 18.0776 18.0776 23.0045 12 23.0045V24V24.9955C19.1772 24.9955 24.9955 19.1772 24.9955 12H24ZM12 0V0.99551C18.0776 0.99551 23.0045 5.92239 23.0045 12H24H24.9955C24.9955 4.82278 19.1772 -0.99551 12 -0.99551V0ZM12 0V-0.99551C4.82278 -0.99551 -0.99551 4.82278 -0.99551 12H0H0.99551C0.99551 5.92239 5.92239 0.99551 12 0.99551V0Z" fill="white" fill-opacity="0.03" mask="url(#path-4-inside-1_253_4731)"/>
</g>
<defs>
<clipPath id="clip0_253_4731">
<rect width="24" height="24" rx="12" fill="white"/>
</clipPath>
<clipPath id="clip1_253_4731">
<rect width="16" height="16" fill="white" transform="translate(4 4)"/>
</clipPath>
</defs>
</svg>
