<svg width="24" height="24" viewBox="0 0 24 24" fill="none" xmlns="http://www.w3.org/2000/svg">
<g clip-path="url(#clip0_253_4751)">
<rect width="24" height="24" rx="12" fill="white" fill-opacity="0.03"/>
<mask id="mask0_253_4751" style="mask-type:alpha" maskUnits="userSpaceOnUse" x="4" y="4" width="16" height="16">
<g clip-path="url(#clip1_253_4751)">
<path d="M16.6667 6.66671H16V5.33337H14.6667V6.66671H9.33333V5.33337H8V6.66671H7.33333C6.59333 6.66671 6.00667 7.26671 6.00667 8.00004L6 17.3334C6 18.0667 6.59333 18.6667 7.33333 18.6667H16.6667C17.4 18.6667 18 18.0667 18 17.3334V8.00004C18 7.26671 17.4 6.66671 16.6667 6.66671ZM16.6667 17.3334H7.33333V10.6667H16.6667V17.3334ZM16.6667 9.33337H7.33333V8.00004H16.6667V9.33337ZM10 13.3334H8.66667V12H10V13.3334ZM12.6667 13.3334H11.3333V12H12.6667V13.3334ZM15.3333 13.3334H14V12H15.3333V13.3334ZM10 16H8.66667V14.6667H10V16ZM12.6667 16H11.3333V14.6667H12.6667V16ZM15.3333 16H14V14.6667H15.3333V16Z" fill="black"/>
</g>
</mask>
<g mask="url(#mask0_253_4751)">
<rect x="4" y="4" width="16" height="16" fill="#E11F35"/>
</g>
<mask id="path-4-inside-1_253_4751" fill="white">
<path d="M0 12C0 5.37258 5.37258 0 12 0C18.6274 0 24 5.37258 24 12C24 18.6274 18.6274 24 12 24C5.37258 24 0 18.6274 0 12Z"/>
</mask>
<path d="M12 24V23.0045C5.92239 23.0045 0.99551 18.0776 0.99551 12H0H-0.99551C-0.99551 19.1772 4.82278 24.9955 12 24.9955V24ZM24 12H23.0045C23.0045 18.0776 18.0776 23.0045 12 23.0045V24V24.9955C19.1772 24.9955 24.9955 19.1772 24.9955 12H24ZM12 0V0.99551C18.0776 0.99551 23.0045 5.92239 23.0045 12H24H24.9955C24.9955 4.82278 19.1772 -0.99551 12 -0.99551V0ZM12 0V-0.99551C4.82278 -0.99551 -0.99551 4.82278 -0.99551 12H0H0.99551C0.99551 5.92239 5.92239 0.99551 12 0.99551V0Z" fill="white" fill-opacity="0.03" mask="url(#path-4-inside-1_253_4751)"/>
</g>
<defs>
<clipPath id="clip0_253_4751">
<rect width="24" height="24" rx="12" fill="white"/>
</clipPath>
<clipPath id="clip1_253_4751">
<rect width="16" height="16" fill="white" transform="translate(4 4)"/>
</clipPath>
</defs>
</svg>
