<svg width="24" height="24" viewBox="0 0 24 24" fill="none" xmlns="http://www.w3.org/2000/svg">
<g clip-path="url(#clip0_253_4768)">
<rect width="24" height="24" rx="12" fill="white" fill-opacity="0.03"/>
<mask id="mask0_253_4768" style="mask-type:alpha" maskUnits="userSpaceOnUse" x="4" y="4" width="16" height="16">
<g clip-path="url(#clip1_253_4768)">
<path d="M12 5.33325C8.32004 5.33325 5.33337 8.31992 5.33337 11.9999C5.33337 15.6799 8.32004 18.6666 12 18.6666C15.68 18.6666 18.6667 15.6799 18.6667 11.9999C18.6667 8.31992 15.68 5.33325 12 5.33325ZM12 17.3333C9.06004 17.3333 6.66671 14.9399 6.66671 11.9999C6.66671 9.05992 9.06004 6.66659 12 6.66659C14.94 6.66659 17.3334 9.05992 17.3334 11.9999C17.3334 14.9399 14.94 17.3333 12 17.3333Z" fill="black"/>
<path d="M9.33333 14.6667C10.07 14.6667 10.6667 14.07 10.6667 13.3333C10.6667 12.5967 10.07 12 9.33333 12C8.59667 12 8 12.5967 8 13.3333C8 14.07 8.59667 14.6667 9.33333 14.6667Z" fill="black"/>
<path d="M12 10.6667C12.7366 10.6667 13.3333 10.07 13.3333 9.33333C13.3333 8.59667 12.7366 8 12 8C11.2633 8 10.6666 8.59667 10.6666 9.33333C10.6666 10.07 11.2633 10.6667 12 10.6667Z" fill="black"/>
<path d="M14.6667 14.6667C15.4034 14.6667 16 14.07 16 13.3333C16 12.5967 15.4034 12 14.6667 12C13.93 12 13.3334 12.5967 13.3334 13.3333C13.3334 14.07 13.93 14.6667 14.6667 14.6667Z" fill="black"/>
</g>
</mask>
<g mask="url(#mask0_253_4768)">
<rect x="4" y="4" width="16" height="16" fill="#C6C6C6"/>
</g>
<mask id="path-7-inside-1_253_4768" fill="white">
<path d="M0 12C0 5.37258 5.37258 0 12 0C18.6274 0 24 5.37258 24 12C24 18.6274 18.6274 24 12 24C5.37258 24 0 18.6274 0 12Z"/>
</mask>
<path d="M12 24V23.0045C5.92239 23.0045 0.99551 18.0776 0.99551 12H0H-0.99551C-0.99551 19.1772 4.82278 24.9955 12 24.9955V24ZM24 12H23.0045C23.0045 18.0776 18.0776 23.0045 12 23.0045V24V24.9955C19.1772 24.9955 24.9955 19.1772 24.9955 12H24ZM12 0V0.99551C18.0776 0.99551 23.0045 5.92239 23.0045 12H24H24.9955C24.9955 4.82278 19.1772 -0.99551 12 -0.99551V0ZM12 0V-0.99551C4.82278 -0.99551 -0.99551 4.82278 -0.99551 12H0H0.99551C0.99551 5.92239 5.92239 0.99551 12 0.99551V0Z" fill="white" fill-opacity="0.03" mask="url(#path-7-inside-1_253_4768)"/>
</g>
<defs>
<clipPath id="clip0_253_4768">
<rect width="24" height="24" rx="12" fill="white"/>
</clipPath>
<clipPath id="clip1_253_4768">
<rect width="16" height="16" fill="white" transform="translate(4 4)"/>
</clipPath>
</defs>
</svg>
