<svg width="40" height="40" viewBox="0 0 40 40" fill="none" xmlns="http://www.w3.org/2000/svg">
<path d="M26.6641 26.6668L31.6641 13.3335L36.6641 26.6668C35.2141 27.7502 33.4641 28.3335 31.6641 28.3335C29.8641 28.3335 28.1141 27.7502 26.6641 26.6668Z" stroke="#E5E7EB" stroke-width="3" stroke-linecap="round" stroke-linejoin="round"/>
<path d="M3.33594 26.6668L8.33594 13.3335L13.3359 26.6668C11.8859 27.7502 10.1359 28.3335 8.33594 28.3335C6.53594 28.3335 4.78594 27.7502 3.33594 26.6668Z" stroke="#E5E7EB" stroke-width="3" stroke-linecap="round" stroke-linejoin="round"/>
<path d="M11.6641 35H28.3307" stroke="#E5E7EB" stroke-width="3" stroke-linecap="round" stroke-linejoin="round"/>
<path d="M20 5V35" stroke="#E5E7EB" stroke-width="3" stroke-linecap="round" stroke-linejoin="round"/>
<path d="M5 11.6668H8.33333C11.6667 11.6668 16.6667 10.0002 20 8.3335C23.3333 10.0002 28.3333 11.6668 31.6667 11.6668H35" stroke="#E5E7EB" stroke-width="3" stroke-linecap="round" stroke-linejoin="round"/>
</svg>
