<svg width="40" height="40" viewBox="0 0 40 40" fill="none" xmlns="http://www.w3.org/2000/svg">
<path d="M6.66454 23.3344C6.34915 23.3355 6.03992 23.2471 5.77279 23.0794C5.50566 22.9117 5.29159 22.6717 5.15545 22.3872C5.01931 22.1027 4.96669 21.7854 5.0037 21.4722C5.04071 21.159 5.16584 20.8627 5.36454 20.6178L21.8645 3.61775C21.9883 3.47489 22.157 3.37835 22.3428 3.34397C22.5287 3.3096 22.7207 3.33944 22.8874 3.42859C23.0541 3.51774 23.1855 3.66091 23.2601 3.8346C23.3347 4.00828 23.348 4.20217 23.2979 4.38442L20.0979 14.4178C20.0035 14.6703 19.9718 14.942 20.0055 15.2094C20.0392 15.4769 20.1373 15.7322 20.2914 15.9535C20.4454 16.1747 20.6508 16.3553 20.89 16.4797C21.1292 16.6041 21.3949 16.6686 21.6645 16.6678H33.3312C33.6466 16.6667 33.9558 16.7551 34.2229 16.9228C34.4901 17.0905 34.7041 17.3305 34.8403 17.615C34.9764 17.8995 35.029 18.2168 34.992 18.53C34.955 18.8432 34.8299 19.1395 34.6312 19.3844L18.1312 36.3844C18.0074 36.5273 17.8388 36.6238 17.6529 36.6582C17.467 36.6926 17.275 36.6627 17.1083 36.5736C16.9416 36.4844 16.8102 36.3413 16.7356 36.1676C16.6611 35.9939 16.6477 35.8 16.6979 35.6178L19.8979 25.5844C19.9922 25.3319 20.0239 25.0602 19.9902 24.7927C19.9565 24.5253 19.8584 24.27 19.7044 24.0487C19.5503 23.8275 19.3449 23.6469 19.1057 23.5225C18.8666 23.3981 18.6008 23.3335 18.3312 23.3344H6.66454Z" stroke="#E5E7EB" stroke-width="3" stroke-linecap="round" stroke-linejoin="round"/>
</svg>
