<svg width="40" height="40" viewBox="0 0 40 40" fill="none" xmlns="http://www.w3.org/2000/svg">
<path d="M24.9974 3.33398H9.9974C9.11334 3.33398 8.26549 3.68517 7.64037 4.31029C7.01525 4.93542 6.66406 5.78326 6.66406 6.66732V33.334C6.66406 34.218 7.01525 35.0659 7.64037 35.691C8.26549 36.3161 9.11334 36.6673 9.9974 36.6673H29.9974C30.8815 36.6673 31.7293 36.3161 32.3544 35.691C32.9795 35.0659 33.3307 34.218 33.3307 33.334V11.6673L24.9974 3.33398Z" stroke="#E5E7EB" stroke-width="3" stroke-linecap="round" stroke-linejoin="round"/>
<path d="M23.3359 3.33398V10.0007C23.3359 10.8847 23.6871 11.7326 24.3122 12.3577C24.9374 12.9828 25.7852 13.334 26.6693 13.334H33.3359" stroke="#E5E7EB" stroke-width="3" stroke-linecap="round" stroke-linejoin="round"/>
<path d="M16.6693 15H13.3359" stroke="#E5E7EB" stroke-width="3" stroke-linecap="round" stroke-linejoin="round"/>
<path d="M26.6693 21.666H13.3359" stroke="#E5E7EB" stroke-width="3" stroke-linecap="round" stroke-linejoin="round"/>
<path d="M26.6693 28.334H13.3359" stroke="#E5E7EB" stroke-width="3" stroke-linecap="round" stroke-linejoin="round"/>
</svg>
