<svg width="20" height="20" viewBox="0 0 20 20" fill="none" xmlns="http://www.w3.org/2000/svg">
<g clip-path="url(#clip0_2434_36793)">
<path d="M17.4999 9.99944C17.9599 9.99944 18.3374 9.62528 18.2915 9.16778C18.0994 7.25459 17.2516 5.4667 15.8918 4.10721C14.532 2.74773 12.7439 1.90031 10.8307 1.70861C10.3724 1.66278 9.99902 2.04028 9.99902 2.50028V9.16695C9.99902 9.38796 10.0868 9.59992 10.2431 9.7562C10.3994 9.91248 10.6113 10.0003 10.8324 10.0003L17.4999 9.99944Z" stroke="#E5E7EB" stroke-width="1.5" stroke-linecap="round" stroke-linejoin="round"/>
<path d="M17.6747 13.241C17.1445 14.4947 16.3153 15.5995 15.2596 16.4587C14.2038 17.318 12.9537 17.9055 11.6184 18.17C10.2831 18.4344 8.90337 18.3678 7.59981 17.9758C6.29624 17.5839 5.10854 16.8786 4.14053 15.9215C3.17253 14.9645 2.4537 13.785 2.04688 12.486C1.64006 11.187 1.55765 9.80807 1.80685 8.46986C2.05605 7.13165 2.62926 5.87486 3.47639 4.80936C4.32352 3.74386 5.41875 2.9021 6.66635 2.35767" stroke="#E5E7EB" stroke-width="1.5" stroke-linecap="round" stroke-linejoin="round"/>
</g>
<defs>
<clipPath id="clip0_2434_36793">
<rect width="20" height="20" fill="white"/>
</clipPath>
</defs>
</svg>
