<svg width="20" height="20" viewBox="0 0 20 20" fill="none" xmlns="http://www.w3.org/2000/svg">
<path d="M12.5052 1.66602H7.50521C7.04497 1.66602 6.67188 2.03911 6.67188 2.49935V4.16602C6.67188 4.62625 7.04497 4.99935 7.50521 4.99935H12.5052C12.9654 4.99935 13.3385 4.62625 13.3385 4.16602V2.49935C13.3385 2.03911 12.9654 1.66602 12.5052 1.66602Z" stroke="#E5E7EB" stroke-width="1.5" stroke-linecap="round" stroke-linejoin="round"/>
<path d="M13.3281 3.33398H14.9948C15.4368 3.33398 15.8607 3.50958 16.1733 3.82214C16.4859 4.1347 16.6615 4.55862 16.6615 5.00065V16.6673C16.6615 17.1093 16.4859 17.5333 16.1733 17.8458C15.8607 18.1584 15.4368 18.334 14.9948 18.334H4.99479C4.55276 18.334 4.12884 18.1584 3.81628 17.8458C3.50372 17.5333 3.32813 17.1093 3.32812 16.6673V5.00065C3.32812 4.55862 3.50372 4.1347 3.81628 3.82214C4.12884 3.50958 4.55276 3.33398 4.99479 3.33398H6.66146" stroke="#E5E7EB" stroke-width="1.5" stroke-linecap="round" stroke-linejoin="round"/>
<path d="M7.5 11.6667L9.16667 13.3333L12.5 10" stroke="#E5E7EB" stroke-width="1.5" stroke-linecap="round" stroke-linejoin="round"/>
</svg>
