<svg width="20" height="20" viewBox="0 0 20 20" fill="none" xmlns="http://www.w3.org/2000/svg">
<path d="M12.5026 1.66602H5.0026C4.56058 1.66602 4.13665 1.84161 3.82409 2.15417C3.51153 2.46673 3.33594 2.89065 3.33594 3.33268V16.666C3.33594 17.108 3.51153 17.532 3.82409 17.8445C4.13665 18.1571 4.56058 18.3327 5.0026 18.3327H15.0026C15.4446 18.3327 15.8686 18.1571 16.1811 17.8445C16.4937 17.532 16.6693 17.108 16.6693 16.666V5.83268L12.5026 1.66602Z" stroke="#E5E7EB" stroke-width="1.5" stroke-linecap="round" stroke-linejoin="round"/>
<path d="M11.6641 1.66602V4.99935C11.6641 5.44138 11.8397 5.8653 12.1522 6.17786C12.4648 6.49042 12.8887 6.66602 13.3307 6.66602H16.6641" stroke="#E5E7EB" stroke-width="1.5" stroke-linecap="round" stroke-linejoin="round"/>
<path d="M7.5 12.5007L9.16667 14.1673L12.5 10.834" stroke="#E5E7EB" stroke-width="1.5" stroke-linecap="round" stroke-linejoin="round"/>
</svg>
