<svg width="36" height="36" viewBox="0 0 36 36" fill="none" xmlns="http://www.w3.org/2000/svg">
<path d="M24 30.0005V6.00049C24 5.20484 23.6839 4.44178 23.1213 3.87917C22.5587 3.31656 21.7956 3.00049 21 3.00049H15C14.2044 3.00049 13.4413 3.31656 12.8787 3.87917C12.3161 4.44178 12 5.20484 12 6.00049V30.0005" stroke="#E5E7EB" stroke-width="2.7" stroke-linecap="round" stroke-linejoin="round"/>
<path d="M30 9H6C4.34315 9 3 10.3431 3 12V27C3 28.6569 4.34315 30 6 30H30C31.6569 30 33 28.6569 33 27V12C33 10.3431 31.6569 9 30 9Z" stroke="#E5E7EB" stroke-width="2.7" stroke-linecap="round" stroke-linejoin="round"/>
</svg>
