<svg width="20" height="20" viewBox="0 0 20 20" fill="none" xmlns="http://www.w3.org/2000/svg">
<path d="M16.6663 10.8326C16.6663 14.9992 13.7497 17.0826 10.283 18.2909C10.1015 18.3524 9.90429 18.3495 9.72467 18.2826C6.24967 17.0826 3.33301 14.9992 3.33301 10.8326V4.99924C3.33301 4.77822 3.42081 4.56626 3.57709 4.40998C3.73337 4.2537 3.94533 4.1659 4.16634 4.1659C5.83301 4.1659 7.91634 3.1659 9.36634 1.89924C9.54289 1.7484 9.76747 1.66553 9.99967 1.66553C10.2319 1.66553 10.4565 1.7484 10.633 1.89924C12.0913 3.17424 14.1663 4.1659 15.833 4.1659C16.054 4.1659 16.266 4.2537 16.4223 4.40998C16.5785 4.56626 16.6663 4.77822 16.6663 4.99924V10.8326Z" stroke="#E5E7EB" stroke-width="1.5" stroke-linecap="round" stroke-linejoin="round"/>
</svg>
