<svg width="40" height="40" viewBox="0 0 40 40" fill="none" xmlns="http://www.w3.org/2000/svg">
<path d="M10 36.6673V6.66732C10 5.78326 10.3512 4.93542 10.9763 4.31029C11.6014 3.68517 12.4493 3.33398 13.3333 3.33398H26.6667C27.5507 3.33398 28.3986 3.68517 29.0237 4.31029C29.6488 4.93542 30 5.78326 30 6.66732V36.6673H10Z" stroke="#E5E7EB" stroke-width="3" stroke-linecap="round" stroke-linejoin="round"/>
<path d="M10.0026 20H6.66927C5.78522 20 4.93737 20.3512 4.31225 20.9763C3.68713 21.6014 3.33594 22.4493 3.33594 23.3333V33.3333C3.33594 34.2174 3.68713 35.0652 4.31225 35.6904C4.93737 36.3155 5.78522 36.6667 6.66927 36.6667H10.0026" stroke="#E5E7EB" stroke-width="3" stroke-linecap="round" stroke-linejoin="round"/>
<path d="M30 15H33.3333C34.2174 15 35.0652 15.3512 35.6904 15.9763C36.3155 16.6014 36.6667 17.4493 36.6667 18.3333V33.3333C36.6667 34.2174 36.3155 35.0652 35.6904 35.6904C35.0652 36.3155 34.2174 36.6667 33.3333 36.6667H30" stroke="#E5E7EB" stroke-width="3" stroke-linecap="round" stroke-linejoin="round"/>
<path d="M16.6641 10H23.3307" stroke="#E5E7EB" stroke-width="3" stroke-linecap="round" stroke-linejoin="round"/>
<path d="M16.6641 16.666H23.3307" stroke="#E5E7EB" stroke-width="3" stroke-linecap="round" stroke-linejoin="round"/>
<path d="M16.6641 23.334H23.3307" stroke="#E5E7EB" stroke-width="3" stroke-linecap="round" stroke-linejoin="round"/>
<path d="M16.6641 30H23.3307" stroke="#E5E7EB" stroke-width="3" stroke-linecap="round" stroke-linejoin="round"/>
</svg>
