<svg width="32" height="32" viewBox="0 0 32 32" fill="none" xmlns="http://www.w3.org/2000/svg">
<path d="M16.0013 29.3332C23.3651 29.3332 29.3346 23.3636 29.3346 15.9998C29.3346 8.63604 23.3651 2.6665 16.0013 2.6665C8.63751 2.6665 2.66797 8.63604 2.66797 15.9998C2.66797 23.3636 8.63751 29.3332 16.0013 29.3332Z" stroke="#E5E7EB" stroke-width="2.4" stroke-linecap="round" stroke-linejoin="round"/>
<path d="M16 24C20.4183 24 24 20.4183 24 16C24 11.5817 20.4183 8 16 8C11.5817 8 8 11.5817 8 16C8 20.4183 11.5817 24 16 24Z" stroke="#E5E7EB" stroke-width="2.4" stroke-linecap="round" stroke-linejoin="round"/>
<path d="M15.9987 18.6668C17.4715 18.6668 18.6654 17.4729 18.6654 16.0002C18.6654 14.5274 17.4715 13.3335 15.9987 13.3335C14.5259 13.3335 13.332 14.5274 13.332 16.0002C13.332 17.4729 14.5259 18.6668 15.9987 18.6668Z" stroke="#E5E7EB" stroke-width="2.4" stroke-linecap="round" stroke-linejoin="round"/>
</svg>
