<svg width="20" height="20" viewBox="0 0 20 20" fill="none" xmlns="http://www.w3.org/2000/svg">
<path d="M17.8542 9.10131C18.0034 9.0355 18.13 8.92737 18.2183 8.79032C18.3067 8.65326 18.3528 8.49331 18.3512 8.33026C18.3495 8.16722 18.3 8.00825 18.2089 7.87305C18.1177 7.73785 17.9889 7.63236 17.8384 7.56965L10.6959 4.31631C10.4788 4.21727 10.2429 4.16602 10.0042 4.16602C9.76557 4.16602 9.52969 4.21727 9.31256 4.31631L2.17089 7.56631C2.02253 7.63129 1.89632 7.73809 1.8077 7.87366C1.71907 8.00923 1.67188 8.16768 1.67188 8.32965C1.67188 8.49161 1.71907 8.65007 1.8077 8.78563C1.89632 8.9212 2.02253 9.028 2.17089 9.09298L9.31256 12.3496C9.52969 12.4487 9.76557 12.4999 10.0042 12.4999C10.2429 12.4999 10.4788 12.4487 10.6959 12.3496L17.8542 9.10131Z" stroke="#E5E7EB" stroke-width="1.5" stroke-linecap="round" stroke-linejoin="round"/>
<path d="M18.3281 8.33398V13.334" stroke="#E5E7EB" stroke-width="1.5" stroke-linecap="round" stroke-linejoin="round"/>
<path d="M5 10.416V13.3327C5 13.9957 5.52678 14.6316 6.46447 15.1004C7.40215 15.5693 8.67392 15.8327 10 15.8327C11.3261 15.8327 12.5979 15.5693 13.5355 15.1004C14.4732 14.6316 15 13.9957 15 13.3327V10.416" stroke="#E5E7EB" stroke-width="1.5" stroke-linecap="round" stroke-linejoin="round"/>
</svg>
