<svg width="40" height="40" viewBox="0 0 40 40" fill="none" xmlns="http://www.w3.org/2000/svg">
<path d="M33.3385 21.6681C33.3385 30.0014 27.5052 34.1681 20.5719 36.5847C20.2088 36.7078 19.8144 36.7019 19.4552 36.5681C12.5052 34.1681 6.67188 30.0014 6.67188 21.6681V10.0014C6.67188 9.55937 6.84747 9.13545 7.16003 8.82289C7.47259 8.51033 7.89651 8.33473 8.33854 8.33473C11.6719 8.33473 15.8385 6.33473 18.7385 3.8014C19.0916 3.49973 19.5408 3.33398 20.0052 3.33398C20.4696 3.33398 20.9188 3.49973 21.2719 3.8014C24.1885 6.3514 28.3385 8.33473 31.6719 8.33473C32.1139 8.33473 32.5378 8.51033 32.8504 8.82289C33.1629 9.13545 33.3385 9.55937 33.3385 10.0014V21.6681Z" stroke="#E5E7EB" stroke-width="3" stroke-linecap="round" stroke-linejoin="round"/>
<path d="M15 19.9993L18.3333 23.3327L25 16.666" stroke="#E5E7EB" stroke-width="3" stroke-linecap="round" stroke-linejoin="round"/>
</svg>
