<svg width="32" height="32" viewBox="0 0 32 32" fill="none" xmlns="http://www.w3.org/2000/svg">
<path d="M2.66797 12.6664C2.668 11.1827 3.11809 9.73384 3.95881 8.51128C4.79953 7.28872 5.99132 6.34994 7.37678 5.81893C8.76224 5.28792 10.2762 5.18965 11.7187 5.53712C13.1611 5.88459 14.4643 6.66143 15.456 7.76506C15.5258 7.83975 15.6103 7.89929 15.7041 7.93999C15.7979 7.9807 15.899 8.00171 16.0013 8.00171C16.1036 8.00171 16.2047 7.9807 16.2985 7.93999C16.3923 7.89929 16.4768 7.83975 16.5466 7.76506C17.5352 6.65426 18.8387 5.87088 20.2835 5.5192C21.7283 5.16751 23.246 5.26419 24.6345 5.79637C26.023 6.32856 27.2165 7.271 28.0561 8.49826C28.8958 9.72553 29.3417 11.1794 29.3346 12.6664C29.3346 15.7197 27.3346 17.9997 25.3346 19.9997L18.012 27.0837C17.7635 27.3691 17.4572 27.5983 17.1134 27.7561C16.7695 27.914 16.396 27.9969 16.0177 27.9993C15.6393 28.0016 15.2648 27.9235 14.919 27.77C14.5732 27.6165 14.264 27.3912 14.012 27.1091L6.66797 19.9997C4.66797 17.9997 2.66797 15.7331 2.66797 12.6664Z" stroke="#E5E7EB" stroke-width="2.4" stroke-linecap="round" stroke-linejoin="round"/>
</svg>
