<svg width="16" height="16" viewBox="0 0 16 16" fill="none" xmlns="http://www.w3.org/2000/svg">
<path d="M2.5 14C2.224 14 2 13.776 2 13.5V2.5C2 2.224 2.224 2 2.5 2H13.5C13.776 2 14 2.224 14 2.5V13.5C14 13.776 13.776 14 13.5 14H2.5Z" stroke="#D5DBE6" stroke-linecap="round" stroke-linejoin="round"/>
<path d="M7.5 7V11" stroke="#D5DBE6" stroke-linecap="round" stroke-linejoin="round"/>
<path d="M5.5 7V11" stroke="#D5DBE6" stroke-linecap="round" stroke-linejoin="round"/>
<path d="M7.5 8.75C7.5 7.78333 8.28333 7 9.25 7C10.2167 7 11 7.78333 11 8.75V11" stroke="#D5DBE6" stroke-linecap="round" stroke-linejoin="round"/>
<path d="M4.75 5.25C4.75 4.836 5.086 4.5 5.5 4.5C5.914 4.5 6.25 4.836 6.25 5.25C6.25 5.664 5.914 6 5.5 6C5.086 6 4.75 5.664 4.75 5.25Z" fill="#D5DBE6"/>
</svg>
