<svg width="16" height="16" viewBox="0 0 16 16" fill="none" xmlns="http://www.w3.org/2000/svg">
<path d="M9.22076 11.0453C9.35845 11.1086 9.51356 11.123 9.66056 11.0863C9.80755 11.0496 9.93765 10.9639 10.0294 10.8433L10.2661 10.5333C10.3903 10.3677 10.5513 10.2333 10.7365 10.1408C10.9216 10.0482 11.1258 9.99999 11.3328 9.99999H13.3328C13.6864 9.99999 14.0255 10.1405 14.2756 10.3905C14.5256 10.6406 14.6661 10.9797 14.6661 11.3333V13.3333C14.6661 13.6869 14.5256 14.0261 14.2756 14.2761C14.0255 14.5262 13.6864 14.6667 13.3328 14.6667C10.1502 14.6667 7.09792 13.4024 4.84748 11.1519C2.59705 8.9015 1.33276 5.84926 1.33276 2.66666C1.33276 2.31304 1.47324 1.9739 1.72329 1.72385C1.97334 1.4738 2.31247 1.33332 2.6661 1.33332H4.6661C5.01972 1.33332 5.35886 1.4738 5.60891 1.72385C5.85895 1.9739 5.99943 2.31304 5.99943 2.66666V4.66666C5.99943 4.87365 5.95124 5.0778 5.85867 5.26294C5.7661 5.44808 5.63169 5.60913 5.4661 5.73332L5.1541 5.96732C5.03171 6.06078 4.94544 6.19371 4.90996 6.34356C4.87447 6.4934 4.89195 6.65091 4.95943 6.78932C5.87055 8.6399 7.36905 10.1365 9.22076 11.0453Z" fill="#E5E7EB"/>
</svg>
