<svg width="160" height="160" viewBox="0 0 160 160" fill="none" xmlns="http://www.w3.org/2000/svg">
<g filter="url(#filter0_i_2114_40167)">
<g clip-path="url(#clip0_2114_40167)">
<path fill-rule="evenodd" clip-rule="evenodd" d="M59.8173 86.3276L56.4782 92.109C55.6324 93.5764 53.7486 94.0807 52.2845 93.2348C50.8237 92.3924 50.3165 90.4992 51.16 89.0389L54.498 83.2566C55.3451 81.7892 57.2276 81.285 58.695 82.1319C60.1591 82.9799 60.6655 84.8604 59.8173 86.3278V86.3276ZM66.7407 86.7777C66.2592 86.5001 65.732 86.3678 65.2105 86.3678C64.1488 86.3678 63.1143 86.9186 62.5471 87.9024L57.1335 97.2778C56.2866 98.743 56.7943 100.627 58.258 101.474C59.7232 102.321 61.6057 101.816 62.4517 100.349L67.8654 90.9738C68.7112 89.5064 68.207 87.6261 66.7409 86.7779L66.7407 86.7777ZM45.2962 48.5282C45.4202 48.4236 45.4032 48.244 45.2606 48.166L39.5215 44.9732C39.1062 44.7444 38.6571 44.7803 38.284 45.072C29.7968 51.7663 25.061 63.5937 27.0227 73.1923C27.1007 73.5809 27.316 73.8437 27.681 73.9979L32.1839 75.9098C32.3347 75.973 32.4896 75.8742 32.4896 75.7092C32.6003 64.8871 37.0282 55.4892 45.2962 48.5278V48.5282ZM76.2146 93.2911C76.0011 92.494 75.4945 91.8325 74.7885 91.4226C74.307 91.1461 73.7779 91.0138 73.2584 91.0138C72.1966 91.0138 71.1621 91.5646 70.5926 92.5482L66.0802 100.366C65.2988 101.82 65.811 103.649 67.2513 104.48C67.9573 104.888 68.7838 104.995 69.5798 104.781C70.3758 104.567 71.0373 104.061 71.4472 103.355L75.9132 95.6196C76.321 94.9125 76.4284 94.0871 76.2146 93.2911ZM108.971 80.7176L94.5715 72.4019C91.7597 70.7757 89.1362 69.2482 85.7775 69.2482C82.7757 69.2656 80.0601 70.5929 77.4326 71.8781C73.2876 73.9028 68.5898 76.1975 63.5187 71.9995C62.0786 70.8043 61.2555 69.0183 61.3672 67.3309C61.4712 65.7834 62.328 64.4309 63.7823 63.5243L75.6167 56.1481C72.1625 54.4304 68.9826 54.7052 65.3927 55.0178C60.6524 55.4266 55.2787 55.8952 48.3382 51.9911L46.9845 51.2286C39.7284 57.4829 35.9175 65.4972 35.6534 75.064L47.1029 80.9683C47.2655 81.0508 47.4107 81.1615 47.5345 81.2947L50.2849 84.2533L51.7714 81.6807C53.4861 78.7114 57.2968 77.6898 60.2694 79.4045C61.8678 80.3272 62.901 81.8574 63.2479 83.537C64.8756 82.998 66.7168 83.1279 68.315 84.0505C69.9143 84.973 70.9486 86.5033 71.2958 88.1828C72.9239 87.644 74.7655 87.7739 76.3631 88.6965C77.7989 89.5251 78.8248 90.8675 79.2564 92.4747C79.2882 92.5929 79.3161 92.711 79.3408 92.8296C80.9689 92.2902 82.8116 92.4199 84.4109 93.3422C85.5934 94.0257 86.4999 95.0588 87.0234 96.3028L93.9642 100.308C95.3123 101.089 97.0631 100.621 97.8412 99.2711C98.6035 97.947 98.1699 96.2293 96.8658 95.4318L88.3681 90.5239C87.6155 90.0891 87.3564 89.127 87.79 88.3733C88.227 87.6186 89.1901 87.3625 89.9438 87.7963C93.2285 89.6929 96.5135 91.5898 99.7985 93.4864C101.29 94.3486 103.205 93.8355 104.066 92.3434C104.915 90.8735 104.415 88.962 102.956 88.0951L94.6147 83.2805C93.8632 82.8446 93.6039 81.8814 94.0387 81.1277C94.4746 80.3738 95.4378 80.1169 96.1893 80.552C99.433 82.4245 102.677 84.2971 105.92 86.1695C107.405 87.0265 109.33 86.5119 110.187 85.0265C111.139 83.3804 110.397 81.7587 108.971 80.7178V80.7176ZM121.72 45.072C121.508 44.9081 121.274 44.8226 121.034 44.8226C120.848 44.8226 120.662 44.8746 120.482 44.9732L114.741 48.166C114.662 48.2105 114.637 48.2474 114.628 48.3396C114.619 48.4296 114.636 48.4696 114.707 48.5282C122.975 55.4894 127.403 64.8875 127.514 75.7096C127.514 75.8746 127.669 75.9734 127.819 75.9103L132.321 73.9984C132.685 73.8443 132.9 73.5798 132.98 73.1927C134.942 63.5941 130.206 51.7666 121.72 45.072ZM112.984 51.1996L110.166 52.7675C105.518 55.3529 100.336 55.8202 95.1821 54.1219C90.6186 52.6188 85.8338 53.4896 80.5459 56.7853L65.4488 66.1976C64.8524 66.5708 64.5465 67.0089 64.5108 67.5423C64.4631 68.2266 64.8642 69.0226 65.5268 69.5724C68.8715 72.3421 71.5684 71.237 76.0486 69.0475C78.8561 67.6747 82.0403 66.1205 85.7567 66.0977C89.816 66.0977 92.7507 67.7103 96.1491 69.6755L110.618 78.0314C111.35 78.442 112.315 79.4466 112.767 80.1661L124.342 74.8113C124.018 65.3412 120.199 57.4032 112.984 51.1996ZM89.8147 101.551L87.3618 100.135C87.2249 100.726 86.9998 101.3 86.6883 101.84L85.0215 104.728L86.337 105.468C88.6414 106.797 90.1447 106.075 90.7877 104.961C91.3725 103.947 91.3093 102.46 89.8149 101.551H89.8147ZM82.8361 96.0697C81.373 95.2331 79.4938 95.7184 78.6402 97.1944L75.3011 102.979C74.4559 104.443 74.9625 106.328 76.4256 107.174C77.893 108.02 79.7733 107.515 80.6204 106.05L83.9585 100.266C84.8062 98.8051 84.2934 96.916 82.8361 96.0697ZM57.4656 24.933C57.4656 12.4869 67.5556 2.39697 80.0017 2.39697C92.4478 2.39697 102.538 12.4869 102.538 24.933C102.538 37.3791 92.448 47.469 80.0017 47.469C67.5554 47.469 57.4656 37.3793 57.4656 24.933ZM66.7933 25.0383L72.0596 34.1597C72.5866 35.0726 73.4275 35.6344 74.4727 35.7721C75.5177 35.9096 76.4757 35.5845 77.2207 34.8392L92.7198 19.3402C93.9229 18.1373 93.9229 16.1685 92.7198 14.9655C91.5169 13.7626 89.5483 13.7626 88.3451 14.9655L75.5239 27.7868L72.1513 21.9452C71.3018 20.4737 69.397 19.9635 67.9257 20.8129C66.4523 21.6635 65.9427 23.5651 66.7935 25.0385L66.7933 25.0383ZM112.515 18.9672C112.95 14.5915 116.411 11.1302 120.787 10.6957C116.411 10.2613 112.95 6.79998 112.515 2.42426C112.081 6.79998 108.62 10.2613 104.244 10.6957C108.62 11.1302 112.081 14.5915 112.515 18.9672ZM46.2282 38.02C46.5836 34.4398 49.4157 31.6078 52.9958 31.2524C49.4157 30.8971 46.5836 28.065 46.2282 24.4848C45.8729 28.065 43.0408 30.8971 39.4607 31.2524C43.0408 31.6078 45.8729 34.4398 46.2282 38.02Z" fill="white"/>
</g>
</g>
<defs>
<filter id="filter0_i_2114_40167" x="0" y="0" width="160" height="160" filterUnits="userSpaceOnUse" color-interpolation-filters="sRGB">
<feFlood flood-opacity="0" result="BackgroundImageFix"/>
<feBlend mode="normal" in="SourceGraphic" in2="BackgroundImageFix" result="shape"/>
<feColorMatrix in="SourceAlpha" type="matrix" values="0 0 0 0 0 0 0 0 0 0 0 0 0 0 0 0 0 0 127 0" result="hardAlpha"/>
<feOffset dy="2"/>
<feComposite in2="hardAlpha" operator="arithmetic" k2="-1" k3="1"/>
<feColorMatrix type="matrix" values="0 0 0 0 0.0146337 0 0 0 0 0.0753827 0 0 0 0 0.136132 0 0 0 0.4 0"/>
<feBlend mode="normal" in2="shape" result="effect1_innerShadow_2114_40167"/>
</filter>
<clipPath id="clip0_2114_40167">
<rect width="160" height="160" rx="76.9231" transform="matrix(-1 0 0 1 160 0)" fill="white"/>
</clipPath>
</defs>
</svg>
