<svg width="160" height="160" viewBox="0 0 160 160" fill="none" xmlns="http://www.w3.org/2000/svg">
<g filter="url(#filter0_i_2114_40151)">
<rect width="160" height="160" rx="76.9231" transform="matrix(-1 0 0 1 160 0)" fill="url(#paint0_linear_2114_40151)"/>
<g clip-path="url(#clip0_2114_40151)">
<rect width="12.306" height="66.9264" rx="6.15299" transform="matrix(-0.515038 -0.857167 -0.857167 0.515038 131.932 63.77)" fill="white"/>
<g clip-path="url(#clip1_2114_40151)">
<rect width="11.5332" height="11.5403" rx="5.76659" transform="matrix(-0.515038 -0.857167 -0.857167 0.515038 84.4551 92.2944)" fill="#A4B2C7"/>
<rect width="5.38376" height="5.38665" rx="2.69188" transform="matrix(-0.515038 -0.857167 -0.857167 0.515038 80.2324 91.2446)" fill="#636996"/>
</g>
</g>
<path d="M142.642 43.306L138.204 45.8L137.753 44.996L141.408 42.9416L141.394 42.9156L140.147 42.2502L140.884 41.8361L142.213 42.541L142.642 43.306ZM139.675 48.6148C139.474 48.258 139.393 47.9009 139.429 47.5437C139.469 47.1872 139.621 46.8441 139.886 46.5144C140.154 46.1854 140.529 45.8849 141.013 45.6129C141.498 45.3424 141.948 45.1796 142.364 45.1247C142.782 45.0703 143.152 45.1199 143.474 45.2735C143.797 45.4286 144.059 45.6838 144.258 46.0392C144.458 46.3946 144.54 46.7505 144.505 47.1069C144.469 47.4633 144.319 47.8052 144.055 48.1326C143.791 48.4614 143.418 48.7614 142.935 49.0326C142.45 49.3053 141.996 49.4697 141.575 49.5257C141.157 49.5823 140.785 49.5335 140.461 49.3792C140.137 49.2265 139.875 48.9716 139.675 48.6148ZM140.353 48.2336C140.509 48.511 140.769 48.6532 141.132 48.6601C141.497 48.6677 141.946 48.5216 142.48 48.2221C142.832 48.024 143.108 47.8207 143.306 47.6123C143.504 47.4038 143.627 47.1983 143.672 46.9958C143.72 46.7924 143.692 46.599 143.589 46.4155C143.434 46.1396 143.174 45.9985 142.809 45.9924C142.446 45.9855 142 46.1299 141.47 46.4256C141.115 46.623 140.838 46.8257 140.637 47.0335C140.437 47.2427 140.313 47.4491 140.266 47.6524C140.22 47.855 140.249 48.0487 140.353 48.2336ZM141.962 52.6851C141.762 52.3283 141.68 51.9712 141.717 51.614C141.756 51.2575 141.908 50.9144 142.173 50.5847C142.441 50.2557 142.817 49.9552 143.301 49.6832C143.785 49.4127 144.236 49.2499 144.652 49.195C145.07 49.1406 145.44 49.1902 145.762 49.3438C146.085 49.4989 146.346 49.7541 146.546 50.1095C146.745 50.4649 146.827 50.8208 146.792 51.1772C146.757 51.5336 146.606 51.8755 146.342 52.2029C146.078 52.5317 145.705 52.8317 145.222 53.1029C144.737 53.3756 144.284 53.54 143.863 53.596C143.444 53.6526 143.072 53.6038 142.748 53.4496C142.425 53.2968 142.163 53.0419 141.962 52.6851ZM142.64 52.3039C142.796 52.5813 143.056 52.7235 143.419 52.7304C143.784 52.738 144.234 52.592 144.767 52.2924C145.119 52.0943 145.395 51.891 145.593 51.6826C145.792 51.4741 145.914 51.2686 145.96 51.0661C146.007 50.8627 145.979 50.6693 145.876 50.4858C145.721 50.2099 145.461 50.0688 145.096 50.0627C144.733 50.0558 144.287 50.2002 143.757 50.4959C143.403 50.6933 143.125 50.896 142.924 51.1038C142.724 51.313 142.601 51.5194 142.553 51.7227C142.508 51.9253 142.537 52.119 142.64 52.3039ZM145.578 56.9728L145.812 56.8412C145.984 56.7446 146.162 56.6919 146.347 56.6829C146.533 56.6754 146.71 56.717 146.876 56.8076C147.043 56.8982 147.183 57.0432 147.295 57.2425C147.41 57.4477 147.463 57.6444 147.452 57.8326C147.444 58.02 147.387 58.1897 147.282 58.3417C147.178 58.4951 147.04 58.6205 146.866 58.7179L146.632 58.8494C146.46 58.9461 146.282 58.9988 146.097 59.0078C145.912 59.0167 145.736 58.9759 145.569 58.8853C145.403 58.7961 145.263 58.6504 145.149 58.4481C145.036 58.2459 144.984 58.0499 144.993 57.8603C145.002 57.6706 145.059 57.4991 145.163 57.3456C145.268 57.1937 145.406 57.0694 145.578 56.9728ZM146.13 57.4068L145.896 57.5384C145.781 57.6025 145.692 57.6888 145.628 57.7973C145.563 57.9058 145.57 58.0294 145.648 58.1681C145.727 58.3082 145.827 58.3779 145.951 58.3771C146.076 58.377 146.197 58.3445 146.312 58.2795L146.546 58.148C146.662 58.083 146.753 57.9985 146.82 57.8943C146.888 57.7894 146.882 57.6647 146.801 57.5202C146.724 57.3844 146.622 57.3155 146.494 57.3136C146.367 57.3108 146.245 57.3419 146.13 57.4068ZM146.85 53.2896L147.084 53.1581C147.257 53.0607 147.437 53.0082 147.623 53.0007C147.809 52.9932 147.984 53.0352 148.15 53.1266C148.317 53.2172 148.456 53.3622 148.568 53.5616C148.683 53.7653 148.735 53.9612 148.725 54.1494C148.717 54.3383 148.66 54.5087 148.556 54.6607C148.451 54.8127 148.312 54.9373 148.139 55.0348L147.904 55.1663C147.731 55.2637 147.552 55.3169 147.367 55.3258C147.184 55.3354 147.01 55.2945 146.844 55.2031C146.679 55.1117 146.54 54.9655 146.427 54.7647C146.313 54.561 146.259 54.3647 146.267 54.1759C146.276 53.9885 146.332 53.8181 146.436 53.6647C146.54 53.5112 146.678 53.3862 146.85 53.2896ZM147.404 53.728L147.17 53.8595C147.055 53.9245 146.964 54.0105 146.899 54.1175C146.836 54.2252 146.843 54.3484 146.921 54.4871C146.999 54.6258 147.1 54.6947 147.223 54.694C147.348 54.6938 147.469 54.6613 147.584 54.5964L147.818 54.4648C147.934 54.3999 148.025 54.3153 148.092 54.2112C148.16 54.1062 148.154 53.9822 148.074 53.8392C147.997 53.702 147.895 53.6331 147.767 53.6326C147.639 53.6321 147.518 53.6639 147.404 53.728ZM143.617 55.4315L149.77 55.9887L150.074 56.5305L143.921 55.9733L143.617 55.4315Z" fill="white" fill-opacity="0.7"/>
</g>
<defs>
<filter id="filter0_i_2114_40151" x="0" y="0" width="160" height="160" filterUnits="userSpaceOnUse" color-interpolation-filters="sRGB">
<feFlood flood-opacity="0" result="BackgroundImageFix"/>
<feBlend mode="normal" in="SourceGraphic" in2="BackgroundImageFix" result="shape"/>
<feColorMatrix in="SourceAlpha" type="matrix" values="0 0 0 0 0 0 0 0 0 0 0 0 0 0 0 0 0 0 127 0" result="hardAlpha"/>
<feOffset dy="1.53846"/>
<feComposite in2="hardAlpha" operator="arithmetic" k2="-1" k3="1"/>
<feColorMatrix type="matrix" values="0 0 0 0 1 0 0 0 0 1 0 0 0 0 1 0 0 0 0.6 0"/>
<feBlend mode="normal" in2="shape" result="effect1_innerShadow_2114_40151"/>
</filter>
<linearGradient id="paint0_linear_2114_40151" x1="80" y1="0" x2="80" y2="160" gradientUnits="userSpaceOnUse">
<stop stop-color="#264D82"/>
<stop offset="0.28" stop-color="#102A4E" stop-opacity="0"/>
</linearGradient>
<clipPath id="clip0_2114_40151">
<rect width="12.306" height="66.9264" rx="6.15299" transform="matrix(-0.515038 -0.857167 -0.857167 0.515038 131.932 63.77)" fill="white"/>
</clipPath>
<clipPath id="clip1_2114_40151">
<rect width="11.5332" height="11.5403" rx="5.76659" transform="matrix(-0.515038 -0.857167 -0.857167 0.515038 84.4551 92.2944)" fill="white"/>
</clipPath>
</defs>
</svg>
